<svg width="150" height="150" viewBox="0 0 150 150" fill="none" xmlns="http://www.w3.org/2000/svg">
<path d="M121.875 32.8125H112.5V28.125C112.498 25.6394 111.509 23.2562 109.751 21.4986C107.994 19.741 105.611 18.7525 103.125 18.75H46.875C44.3894 18.7525 42.0062 19.741 40.2486 21.4986C38.491 23.2562 37.5025 25.6394 37.5 28.125V32.8125H28.125C25.6394 32.815 23.2562 33.8035 21.4986 35.5611C19.741 37.3187 18.7525 39.7019 18.75 42.1875V56.25C18.7562 61.2209 20.7336 65.9864 24.2486 69.5014C27.7636 73.0164 32.5291 74.9938 37.5 75H39.0094C40.9627 82.1752 44.963 88.6264 50.5218 93.5659C56.0806 98.5054 62.9574 101.719 70.3125 102.816V121.875H46.875V131.25H103.125V121.875H79.6875V102.802C87.1381 101.881 94.1381 98.735 99.774 93.7756C105.41 88.8161 109.42 82.273 111.281 75H112.5C117.471 74.9938 122.236 73.0164 125.751 69.5014C129.266 65.9864 131.244 61.2209 131.25 56.25V42.1875C131.248 39.7019 130.259 37.3187 128.501 35.5611C126.744 33.8035 124.361 32.815 121.875 32.8125ZM37.5 65.625C35.0144 65.6225 32.6312 64.634 30.8736 62.8764C29.116 61.1188 28.1275 58.7356 28.125 56.25V42.1875H37.5V65.625ZM103.125 65.625C103.125 69.3918 102.368 73.1201 100.9 76.5889C99.4313 80.0576 97.281 83.1961 94.5765 85.8179C91.872 88.4398 88.6684 90.4917 85.1558 91.8518C81.6431 93.212 77.8931 93.8527 74.1281 93.7359C66.6646 93.2714 59.6674 89.9478 54.5916 84.4565C49.5158 78.9651 46.752 71.7285 46.875 64.2516V28.125H103.125V65.625ZM121.875 56.25C121.873 58.7356 120.884 61.1188 119.126 62.8764C117.369 64.634 114.986 65.6225 112.5 65.625V42.1875H121.875V56.25Z" fill="#E1E9F0"/>
</svg>
