<svg width="150" height="150" viewBox="0 0 150 150" fill="none" xmlns="http://www.w3.org/2000/svg">
<path d="M136.966 72.8993C131.575 48.5302 123.58 32.9853 110.766 29.1972C108.284 28.4732 105.71 28.112 103.125 28.1249C95.2471 28.1249 89.0303 32.8124 75 32.8124C60.9697 32.8124 54.7412 28.1249 46.875 28.1249C44.1819 28.111 41.4999 28.4718 38.9063 29.1972C26.0742 32.9853 18.1465 48.5448 12.6943 72.8993C7.12794 97.7753 8.13575 117.431 19.0166 121.204C26.6338 123.841 33.4453 118.389 39.8965 110.364C47.2207 101.224 56.2412 98.411 75 98.411C93.7588 98.411 102.428 101.224 109.764 110.364C116.209 118.394 123.272 123.779 130.688 121.251C142.705 117.146 142.535 98.0683 136.966 72.8993Z" stroke="#E1E9F0" stroke-width="9.375" stroke-miterlimit="10"/>
<path d="M85.5469 71.4844C88.7829 71.4844 91.4062 68.861 91.4062 65.625C91.4062 62.389 88.7829 59.7656 85.5469 59.7656C82.3108 59.7656 79.6875 62.389 79.6875 65.625C79.6875 68.861 82.3108 71.4844 85.5469 71.4844Z" fill="#E1E9F0"/>
<path d="M98.4375 84.375C97.278 84.375 96.1446 84.031 95.1807 83.3865C94.2168 82.742 93.4658 81.826 93.0227 80.7545C92.5797 79.683 92.4645 78.5041 92.6918 77.3671C92.9191 76.2301 93.4786 75.1861 94.2995 74.3672C95.1204 73.5484 96.1658 72.9915 97.3034 72.7671C98.441 72.5426 99.6195 72.6608 100.69 73.1065C101.76 73.5522 102.674 74.3055 103.317 75.271C103.959 76.2365 104.3 77.3708 104.297 78.5303C104.293 80.0817 103.674 81.5683 102.576 82.664C101.477 83.7597 99.989 84.375 98.4375 84.375Z" fill="#E1E9F0"/>
<path d="M98.4375 58.5938C101.674 58.5938 104.297 55.9704 104.297 52.7344C104.297 49.4983 101.674 46.875 98.4375 46.875C95.2015 46.875 92.5781 49.4983 92.5781 52.7344C92.5781 55.9704 95.2015 58.5938 98.4375 58.5938Z" fill="#E1E9F0"/>
<path d="M111.328 71.4844C114.564 71.4844 117.188 68.861 117.188 65.625C117.188 62.389 114.564 59.7656 111.328 59.7656C108.092 59.7656 105.469 62.389 105.469 65.625C105.469 68.861 108.092 71.4844 111.328 71.4844Z" fill="#E1E9F0"/>
<path d="M46.875 51.5625V79.6875" stroke="#E1E9F0" stroke-width="9.375" stroke-linecap="round" stroke-linejoin="round"/>
<path d="M60.9375 65.625H32.8125" stroke="#E1E9F0" stroke-width="9.375" stroke-linecap="round" stroke-linejoin="round"/>
</svg>
