<svg width="150" height="150" viewBox="0 0 150 150" fill="none" xmlns="http://www.w3.org/2000/svg">
<path d="M115.625 125C115.625 125.829 115.296 126.624 114.71 127.21C114.124 127.796 113.329 128.125 112.5 128.125H76.675C74.8856 131.554 72.617 134.711 69.9375 137.5H112.5C115.815 137.5 118.995 136.183 121.339 133.839C123.683 131.495 125 128.315 125 125V61.425C124.999 58.1101 123.682 54.9312 121.337 52.5875L84.9062 16.1625C84.8096 16.0727 84.7074 15.9892 84.6 15.9125C84.5227 15.8528 84.4476 15.7903 84.375 15.725C83.945 15.3192 83.4876 14.9433 83.0062 14.6C82.8462 14.4968 82.6791 14.4049 82.5062 14.325L82.2063 14.175L81.8937 13.9938C81.5563 13.8 81.2125 13.6 80.8563 13.45C79.6116 12.9529 78.2944 12.6616 76.9562 12.5875C76.8312 12.5812 76.7062 12.5625 76.5875 12.5437C76.4179 12.5176 76.2466 12.5029 76.075 12.5H37.5C34.1848 12.5 31.0054 13.817 28.6612 16.1612C26.317 18.5054 25 21.6848 25 25V71.8625C28.007 70.6078 31.1549 69.7221 34.375 69.225V25C34.375 24.1712 34.7042 23.3763 35.2903 22.7903C35.8763 22.2042 36.6712 21.875 37.5 21.875H75V50C75 53.3152 76.317 56.4946 78.6612 58.8388C81.0054 61.183 84.1848 62.5 87.5 62.5H115.625V125ZM84.375 28.8812L108.613 53.125H87.5C86.6712 53.125 85.8763 52.7958 85.2903 52.2097C84.7042 51.6237 84.375 50.8288 84.375 50V28.8812ZM75 109.375C75 113.889 74.1109 118.359 72.3834 122.53C70.6559 126.7 68.1238 130.49 64.9318 133.682C61.7398 136.874 57.9503 139.406 53.7797 141.133C49.6092 142.861 45.1392 143.75 40.625 143.75C36.1108 143.75 31.6408 142.861 27.4703 141.133C23.2997 139.406 19.5102 136.874 16.3182 133.682C13.1262 130.49 10.5941 126.7 8.86664 122.53C7.13914 118.359 6.25 113.889 6.25 109.375C6.25 100.258 9.87164 91.5148 16.3182 85.0682C22.7648 78.6216 31.5082 75 40.625 75C49.7418 75 58.4852 78.6216 64.9318 85.0682C71.3784 91.5148 75 100.258 75 109.375ZM21.875 106.25C21.0462 106.25 20.2513 106.579 19.6653 107.165C19.0792 107.751 18.75 108.546 18.75 109.375C18.75 110.204 19.0792 110.999 19.6653 111.585C20.2513 112.171 21.0462 112.5 21.875 112.5H51.8313L41.5375 122.787C40.9507 123.374 40.6211 124.17 40.6211 125C40.6211 125.83 40.9507 126.626 41.5375 127.213C42.1243 127.799 42.9202 128.129 43.75 128.129C44.5798 128.129 45.3757 127.799 45.9625 127.213L61.5875 111.588C61.8785 111.297 62.1094 110.952 62.267 110.573C62.4245 110.193 62.5056 109.786 62.5056 109.375C62.5056 108.964 62.4245 108.557 62.267 108.177C62.1094 107.798 61.8785 107.453 61.5875 107.162L45.9625 91.5375C45.3757 90.9507 44.5798 90.6211 43.75 90.6211C42.9202 90.6211 42.1243 90.9507 41.5375 91.5375C40.9507 92.1243 40.6211 92.9202 40.6211 93.75C40.6211 94.5798 40.9507 95.3757 41.5375 95.9625L51.8313 106.25H21.875Z" fill="#E1E9F0"/>
</svg>
